<svg width="113" height="48" fill="none" xmlns="http://www.w3.org/2000/svg"><path fill-rule="evenodd" clip-rule="evenodd" d="M25.968.582c-2.745 3.799-4.288 7.654-4.801 11.987-.199 1.68-.09 5.34.202 6.838.662 3.382 2.102 6.828 4.002 9.572.992 1.434.989 1.432 1.629.591 3.12-4.1 5.01-10.143 4.764-15.227-.242-4.996-1.872-9.522-4.96-13.77L26.388 0l-.42.582Zm1.884 4.242c1.855 3.573 2.7 6.991 2.7 10.922 0 1.416-.322 4.715-.473 4.847-.028.024-.094-.686-.147-1.578-.181-3.026-.722-5.504-1.754-8.032-.585-1.431-1.669-3.535-1.822-3.535-.155 0-1.181 2.004-1.719 3.356-1.119 2.815-1.606 4.955-1.72 7.566-.09 2.052-.195 2.587-.347 1.77-.056-.302-.179-1.49-.272-2.638-.294-3.59.198-6.823 1.564-10.271.657-1.662 1.814-3.994 2.306-4.65l.218-.29.416.656c.23.361.701 1.206 1.05 1.877Zm8.014 18.123v8.298h3.497V16.723h3.356v-2.075h-6.853v8.299Zm8.951-8.127c0 .095-.316 2.91-.703 6.255-.897 7.75-1.114 9.692-1.115 9.957 0 .191.175.213 1.73.213h1.728l.094-1.312c.051-.721.131-1.71.178-2.197l.085-.884h1.748l.08.518c.045.286.123 1.274.175 2.197l.094 1.678h3.58l-.065-.397c-.036-.218-.44-3.691-.898-7.718-.458-4.028-.871-7.583-.918-7.902l-.085-.58h-2.854c-2.363 0-2.854.03-2.854.172Zm11.329-.045c-.758.138-1.234.43-1.609.984-.24.357-.286.68-.327 2.337l-.047 1.922h3.521l.002-1.312c.002-1.377.16-1.887.603-1.962.59-.099.654.136.654 2.434 0 2.714.029 2.67-1.748 2.67h-1.19v1.831h1.059c1.014 0 1.55.126 1.772.415.056.073.104 1.18.105 2.459.002 2.463-.037 2.617-.659 2.617-.481 0-.598-.418-.598-2.143v-1.518h-3.519l.047 2.166c.051 2.404.141 2.698.988 3.225.43.268.597.286 2.997.322 2.345.035 2.586.018 3.11-.215a1.95 1.95 0 0 0 .886-.77c.298-.487.319-.68.356-3.263.035-2.439.012-2.794-.21-3.17-.316-.538-1.064-.98-1.66-.98-.66 0-.716-.207-.082-.301.81-.12 1.406-.495 1.708-1.074.23-.443.268-.808.27-2.59.005-3.721-.352-4.108-3.842-4.166-1.077-.018-2.241.019-2.587.082Zm8.95 8.172v8.298h3.637V16.723h1.259V31.245h3.496V14.648h-8.391v8.299Zm11.015-8.23c-.058.052-.105 3.792-.105 8.311v8.217h3.636v-5.614h1.439c1.865 0 2.514-.247 3.037-1.159.348-.609.35-.618.35-4.15 0-1.946-.05-3.742-.111-3.992-.13-.536-.659-1.121-1.27-1.407-.364-.17-.982-.213-3.655-.252-1.769-.025-3.264-.004-3.321.047Zm12.902.057c-.826.152-1.26.441-1.644 1.097l-.314.537v13.199l.314.537c.575.982.752 1.035 3.606 1.078 2.232.034 2.57.013 3.117-.199.485-.187.683-.36.949-.83l.335-.596V16.297l-.316-.518c-.523-.852-1.115-1.037-3.46-1.082-1.077-.02-2.241.015-2.587.078Zm8.95 8.17v8.301h3.637l.004-5.217c.004-4.816.086-5.848.336-4.24.052.335.437 2.482.856 4.77.419 2.29.762 4.28.762 4.425 0 .252.059.262 1.466.262 1.406 0 1.468-.011 1.537-.275.097-.375.499-2.563 1.207-6.559.326-1.846.646-3.408.709-3.472.064-.064.116 2.23.116 5.095v5.211h3.636V14.648h-2.299c-1.265 0-2.329.041-2.364.092-.036.05-.358 1.519-.715 3.264-.358 1.745-.801 3.887-.984 4.76-.184.872-.413 2.012-.509 2.532-.097.52-.217.945-.267.945-.049 0-.169-.398-.266-.884-.096-.487-.322-1.599-.502-2.471-.179-.873-.554-2.713-.832-4.089a345.205 345.205 0 0 0-.679-3.295l-.174-.793-2.337-.033-2.338-.034v8.302Zm-80.348-8.045C8.972 15.673 2.114 21.3.686 28.792c-.288 1.511-.214 4.658.143 6.053 1.728 6.766 7.657 11.734 15.457 12.953 1.738.272 4.666.269 6.433-.007 3.576-.558 7.026-2.04 9.565-4.109l1.065-.868V31.49H19.503V36.522l.492-.328c2.62-1.744 6.472-1.028 8.01 1.49 1.265 2.07.788 4.162-1.345 5.9-1.875 1.528-4.525 2.428-7.145 2.426-8.409-.005-13.529-7.911-9.223-14.241.678-.996 2.107-2.277 3.31-2.966 1.173-.672 2.931-1.272 4.083-1.393.423-.044 1.006-.11 1.297-.148l.528-.067-.039-6.182-.038-6.182-.35-.016c-.192-.01-.853.029-1.468.084Zm30.346 3.258c.052.788.183 2.504.292 3.813.11 1.31.199 2.558.2 2.777v.396h-1.56l.08-.762c.043-.42.177-2.191.297-3.936s.248-3.297.284-3.448c.154-.645.319-.176.407 1.16Zm32.722-1.163c.183.228.218.762.218 3.356 0 2.953-.013 3.095-.288 3.336-.161.14-.424.235-.595.214-.306-.038-.306-.04-.343-3.608l-.037-3.57h.413c.27 0 .49.095.632.272Zm10.959-.125c.242.211.242 11.944 0 12.155-.257.224-.784.174-.946-.09-.094-.153-.145-2.27-.145-6.032 0-5.106.026-5.819.22-5.988.261-.228.639-.248.87-.045ZM26.99 19.347c1.347 3.122 1.18 7.027-.414 9.683l-.186.308-.244-.412c-1.18-1.992-1.626-5.133-1.065-7.506.25-1.055.875-2.632 1.176-2.963.2-.222.313-.085.733.89Zm8.736 22.942v5.675h76.783V36.615H35.726v5.674Zm5.005-2.227.04 1.312h1.948v-2.685H44.258V45.767H42.719v-3.173h-1.958v3.173h-1.678v-7.09l.804.037.804.036.04 1.312Zm18.771-.763v.61H56.705V41.375h2.518v1.22h-2.518v2.075H59.502v1.098h-4.335V38.69h4.335v.61Zm15.219-.152c.04.37.079.397.567.397.336 0 .75.125 1.16.352.864.478 1.261 1.2 1.267 2.303.01 1.644-.966 2.714-2.474 2.714-.471 0-.494.02-.494.427v.427h-1.678v-.427c0-.42-.01-.427-.582-.427-.798 0-1.642-.454-2.077-1.117-.465-.708-.5-2.223-.069-2.963a2.587 2.587 0 0 1 2.023-1.261c.696-.059.705-.065.705-.477v-.418l.804.037c.795.036.805.04.848.433Zm18.417.152v.55l-.944.036-.944.036v5.846H89.711V39.91h-1.958v-1.225l2.693.033 2.692.033v.55Zm12.098.716v1.326l.903.063c1.129.079 1.71.368 2.129 1.059.593.978.315 2.421-.586 3.04-.35.24-.55.264-2.185.264h-1.799V38.69h1.538v1.326Zm-33.142.928c-.219.203-.346.499-.391.908-.132 1.194.267 1.964 1.016 1.964h.35v-1.587c0-1.579-.002-1.586-.326-1.586-.179 0-.47.135-.649.3Zm2.653 1.285v1.587h.34c.754 0 1.217-1.111.917-2.202-.17-.619-.536-.971-1.008-.971-.226 0-.25.147-.25 1.586Zm30.519 1.434.04 1.068.616-.012c.761-.015.992-.253.992-1.022 0-.806-.284-1.102-1.062-1.102h-.627l.041 1.068Z" fill="#fff"/></svg>