<svg width="143" height="48" fill="none" xmlns="http://www.w3.org/2000/svg"><path fill-rule="evenodd" clip-rule="evenodd" d="M14.727 11.043v10.873h4.218V0h-4.218v11.043Zm-4.82 4.518v10.828h4.218V4.618H9.906V15.56Zm9.84.007v10.835h4.118l.056-10.893.057-10.892h-4.23v10.95ZM5.088 18.82v9.799l1.961 1.954c1.08 1.074 2.024 1.953 2.1 1.953.075 0 .118-5.262.096-11.695l-.04-11.695-2.059-.058-2.059-.057v9.799Zm19.48 2.026V32.62l2.111-2.103 2.111-2.103-.052-9.64-.052-9.638-2.059-.032-2.058-.032v11.774ZM.066 13.5V24.245l1.659 1.48c.912.815 1.861 1.653 2.109 1.863l.45.383V13.522L2.065 13.5c-1.084-.013-2 0-2 0Zm29.437 0v14.409s1.01-.791 2.105-1.757l1.99-1.757.005-5.379V13.5h-4.1Zm-.114 28.947v5.339h3.213v-3.614l3.264-.015c3.7-.018 4.446-.19 5.121-1.186.375-.551.452-.938.452-2.252 0-1.846-.303-2.599-1.258-3.117-.56-.304-1.352-.363-5.72-.423l-5.072-.07v5.338Zm15.866-5.077c-.935.278-1.563.892-1.806 1.767-.11.395-.2 1.983-.2 3.529-.002 3.105.194 3.816 1.268 4.604.531.39.834.415 4.855.415 4.035 0 4.322-.024 4.856-.42 1.046-.773 1.17-1.285 1.164-4.8-.009-5.07-.14-5.19-5.718-5.258-2.126-.026-4.016.044-4.419.163Zm13.758.068c-1.717.624-2.01 1.543-1.867 5.847.1 3.02.277 3.485 1.58 4.15 1.021.52 7.987.52 9.009 0 1.051-.537 1.43-1.193 1.478-2.569l.043-1.196h-3.21l-.103.597c-.143.825-.81 1.103-2.65 1.106-1.731.004-2.45-.195-2.662-.734-.079-.202-.136-1.219-.126-2.26.024-2.563.085-2.624 2.64-2.624 1.078 0 2.099.053 2.268.118.17.065.411.43.537.811l.23.693 1.537-.058 1.539-.059-.025-1.014c-.031-1.269-.494-2.187-1.335-2.646-.896-.49-7.643-.613-8.883-.162ZM71.1 37.42c-.061.16-.12 2.558-.131 5.328l-.02 5.038h3.427v-1.991c0-1.124.086-2.02.197-2.058.109-.037 1.329-.04 2.712-.006l2.514.062V47.786h3.42l-.053-5.27-.053-5.271h-3.214l-.015 1.974-.015 1.973-2.67-.006c-1.468-.004-2.696-.033-2.728-.066-.032-.033-.089-.919-.127-1.968l-.068-1.907-1.532-.058c-1.193-.045-1.557.006-1.644.233Zm16.03-.089c-1.953.471-2.21 1.068-2.21 5.134 0 3.513.125 4.028 1.17 4.8.534.397.858.424 5.773.483l5.208.063v-2.435h-3.807c-2.481 0-3.986-.081-4.322-.235-.472-.215-.896-1.048-.657-1.288.055-.055 2.032-.119 4.393-.142l4.292-.041v-2.41l-3.816-.04c-2.098-.022-4.064-.045-4.368-.05-.654-.012-.756-.567-.196-1.073.296-.267 1.028-.331 4.368-.382l4.012-.06.06-1.256.06-1.255-4.679.021c-2.574.011-4.95.086-5.282.166Zm18.979.817v1.004l-2.862.001c-3.145 0-3.75.18-4.508 1.336-.535.817-.505 3.06.051 3.806.949 1.271 1.27 1.377 4.421 1.452l2.898.069v1.97h3.192l.061-1.034.06-1.034 2.534.022c2.244.02 2.635-.028 3.41-.422 1.187-.601 1.688-1.508 1.653-2.995-.032-1.393-.571-2.382-1.555-2.848-.52-.247-1.319-.323-3.411-.323h-2.731v-2.008h-3.213v1.004Zm10.845.313v1.317l2.059-.039 2.058-.038.055 4.042.054 4.043h3.406V39.755l2.058-.024c1.133-.013 2.127-.013 2.21 0 .083.013.15-.564.15-1.281v-1.306h-12.05v1.317Zm13.456 4.004v5.32l4.871-.003c4.326-.004 4.962-.047 5.699-.381 1.101-.5 1.565-1.63 1.445-3.52-.093-1.457-.509-2.218-1.489-2.719-.517-.264-2.799-.398-6.86-.403-.435 0-.452-.068-.452-1.807v-1.807h-3.214v5.32Zm-92.426-2.47c.338.339.3 1.078-.075 1.452-.253.253-.81.315-2.811.315H32.6V39.755h2.571c1.732 0 2.65.078 2.812.24Zm13.697-.044c.218.137.33.693.402 2.008.123 2.222-.045 2.966-.724 3.225-.647.245-3.315.25-3.956.007-.678-.258-.782-.645-.754-2.818.033-2.574.08-2.62 2.703-2.615 1.116.001 2.164.088 2.33.193Zm54.428 2.514v1.104h-1.794c-1.952 0-2.424-.214-2.424-1.104 0-.89.472-1.104 2.424-1.104h1.794v1.104Zm7.115-.789c.174.174.316.529.316.79 0 .889-.472 1.103-2.425 1.103h-1.793v-2.208h1.793c1.363 0 1.869.076 2.109.315Zm25.905 2.34c.151.431.114.63-.178.953-.333.367-.611.407-2.848.407h-2.479v-.99c0-1.181-.03-1.172 3.209-1.017 2.073.099 2.108.108 2.296.646Z" fill="#fff"/><path d="M9.907 48V27.731h4.218V48H9.906ZM19.647 48V27.731h4.218V48h-4.218ZM14.727 48V23.258h4.218V48h-4.218Z" fill="#fff"/></svg>