<svg width="110" height="110" fill="none" xmlns="http://www.w3.org/2000/svg"><g filter="url(#a)"><path d="M20 51c0-19.33 15.67-35 35-35s35 15.67 35 35-15.67 35-35 35-35-15.67-35-35Z" fill="#fff"/><path d="M51.838 34c1.202 0 1.887 1.197 1.887 2.4v7.37h-1.522a3.402 3.402 0 0 0-3.8-2.064 3.4 3.4 0 0 0-2.751 3.34 3.402 3.402 0 0 0 5.021 2.99 3.401 3.401 0 0 0 1.53-1.715h1.522v18.536c0 1.014-.428 2.022-1.331 2.483a5.777 5.777 0 0 1-2.652.66c-2.567 0-4.476-1.3-5.705-2.837a8.797 8.797 0 0 1-1.734-3.635 5.86 5.86 0 0 1-2.158-1.173C38.938 59.315 38 57.649 38 55.193c0-1.285.092-2.404.323-3.344h7.157c1.153 0 2.108.85 2.27 1.957a3.4 3.4 0 0 0-2.034 3.817 3.402 3.402 0 0 0 3.354 2.728 3.4 3.4 0 0 0 3.32-2.768 3.403 3.403 0 0 0-2.079-3.792 4.848 4.848 0 0 0-4.831-4.494h-5.712c.255-.21.538-.383.841-.513a8.328 8.328 0 0 1-.302-1.917c-.056-1.25.13-2.551.501-3.71.368-1.14.949-2.25 1.765-3.017.512-.499 1.16-.835 1.863-.964.339-1.429 1.2-2.61 2.3-3.465C48.15 34.61 50 34 51.836 34h.002Zm4.437 25.503h2.805a4.844 4.844 0 0 0 4.845-4.848v-3.053a3.4 3.4 0 0 0 .887-5.778 3.399 3.399 0 0 0-5.5 1.975 3.403 3.403 0 0 0 2.063 3.803v3.053a2.297 2.297 0 0 1-2.295 2.296h-2.805V36.4c0-1.203.685-2.4 1.887-2.4 1.84 0 3.689.609 5.102 1.711 1.1.856 1.961 2.038 2.3 3.465.714.119 1.35.483 1.863.964.816.767 1.397 1.876 1.765 3.017.37 1.159.557 2.46.501 3.71a8.295 8.295 0 0 1-.302 1.917l.112.05a3.54 3.54 0 0 1 1.52 1.378c.722 1.166.977 2.843.977 4.98 0 2.458-.938 4.127-2.145 5.163a5.86 5.86 0 0 1-2.16 1.173 8.8 8.8 0 0 1-1.732 3.635C64.734 66.701 62.825 68 60.256 68a5.776 5.776 0 0 1-2.652-.658c-.9-.463-1.329-1.471-1.329-2.485v-5.354ZM48.2 45.045a.85.85 0 1 1 1.701 0 .85.85 0 0 1-1.701 0Zm.85 11.056a.85.85 0 1 0 0 1.7.85.85 0 0 0 0-1.7Zm12.75-7.654a.85.85 0 1 0 1.702 0 .85.85 0 0 0-1.702 0Z" fill="#000D26"/></g><defs><filter id="a" x="0" y="0" width="110" height="110" filterUnits="userSpaceOnUse" color-interpolation-filters="sRGB"><feFlood flood-opacity="0" result="BackgroundImageFix"/><feColorMatrix in="SourceAlpha" values="0 0 0 0 0 0 0 0 0 0 0 0 0 0 0 0 0 0 127 0" result="hardAlpha"/><feOffset dy="4"/><feGaussianBlur stdDeviation="10"/><feColorMatrix values="0 0 0 0 0 0 0 0 0 0.0742857 0 0 0 0 0.216667 0 0 0 0.15 0"/><feBlend in2="BackgroundImageFix" result="effect1_dropShadow_879_257"/><feBlend in="SourceGraphic" in2="effect1_dropShadow_879_257" result="shape"/></filter></defs></svg>