<svg width="110" height="110" fill="none" xmlns="http://www.w3.org/2000/svg"><g filter="url(#a)"><path d="M20 51c0-19.33 15.67-35 35-35s35 15.67 35 35-15.67 35-35 35-35-15.67-35-35Z" fill="#fff"/><path d="M55 31c.916 0 1.795.38 2.443 1.054a3.678 3.678 0 0 1 1.012 2.546c0 1.332-.691 2.502-1.728 3.114V40h1.728c3.206 0 6.282 1.328 8.55 3.69 2.267 2.363 3.54 5.568 3.54 8.91h1.728c.458 0 .897.19 1.221.527.324.338.506.796.506 1.273v5.4c0 .477-.182.935-.506 1.273a1.693 1.693 0 0 1-1.221.527h-1.727v1.8c0 .955-.365 1.87-1.012 2.546A3.385 3.385 0 0 1 67.09 67H42.909c-.916 0-1.795-.38-2.443-1.054a3.678 3.678 0 0 1-1.011-2.546v-1.8h-1.728c-.458 0-.897-.19-1.221-.527A1.84 1.84 0 0 1 36 59.8v-5.4c0-.477.182-.935.506-1.273a1.693 1.693 0 0 1 1.221-.527h1.728c0-3.342 1.273-6.547 3.54-8.91 2.268-2.362 5.344-3.69 8.55-3.69h1.728v-2.286c-1.037-.612-1.728-1.782-1.728-3.114 0-.955.364-1.87 1.012-2.546A3.385 3.385 0 0 1 55 31Zm-7.773 19.8a4.231 4.231 0 0 0-3.053 1.318 4.598 4.598 0 0 0-1.265 3.182c0 1.194.455 2.338 1.265 3.182a4.231 4.231 0 0 0 3.053 1.318 4.232 4.232 0 0 0 3.054-1.318 4.598 4.598 0 0 0 1.264-3.182 4.598 4.598 0 0 0-1.264-3.182 4.232 4.232 0 0 0-3.054-1.318Zm15.546 0a4.232 4.232 0 0 0-3.054 1.318 4.598 4.598 0 0 0-1.264 3.182c0 1.194.455 2.338 1.264 3.182a4.232 4.232 0 0 0 3.054 1.318 4.231 4.231 0 0 0 3.053-1.318 4.598 4.598 0 0 0 1.265-3.182 4.598 4.598 0 0 0-1.265-3.182 4.231 4.231 0 0 0-3.053-1.318Z" fill="#000D26"/></g><defs><filter id="a" x="0" y="0" width="110" height="110" filterUnits="userSpaceOnUse" color-interpolation-filters="sRGB"><feFlood flood-opacity="0" result="BackgroundImageFix"/><feColorMatrix in="SourceAlpha" values="0 0 0 0 0 0 0 0 0 0 0 0 0 0 0 0 0 0 127 0" result="hardAlpha"/><feOffset dy="4"/><feGaussianBlur stdDeviation="10"/><feColorMatrix values="0 0 0 0 0 0 0 0 0 0.0742857 0 0 0 0 0.216667 0 0 0 0.15 0"/><feBlend in2="BackgroundImageFix" result="effect1_dropShadow_879_295"/><feBlend in="SourceGraphic" in2="effect1_dropShadow_879_295" result="shape"/></filter></defs></svg>