<svg width="24" height="24" fill="none" xmlns="http://www.w3.org/2000/svg"><path d="m5.729 18.344-2.526 3.9.269 1.276 1.272-.273 2.524-3.897a10.027 10.027 0 0 1-1.54-1.006Zm10.694-1.362c.017-.034.028-.073.043-.11.064-.14.12-.28.166-.428.007-.027.01-.053.02-.077.046-.162.085-.325.117-.49v-.025c.234-1.403-.174-2.968-1.108-4.381l1.332-2.057c1.535.195 2.862-.19 3.5-1.179 1.108-1.707-.24-4.55-3.005-6.351C14.719.08 11.58.006 10.475 1.71c-.641.989-.454 2.36.351 3.688L9.492 7.455c-1.667-.28-3.26-.019-4.444.768-.007.003-.015.005-.02.01a4.482 4.482 0 0 0-.398.305c-.02.017-.045.032-.062.05a3.63 3.63 0 0 0-.325.325c-.024.03-.057.054-.08.084-.128.145-.244.3-.348.462-1.661 2.56-.244 6.434 3.16 8.651 3.405 2.218 7.511 1.937 9.168-.622.105-.162.2-.332.28-.506Zm-.978-11.95c-1.064-.692-1.584-1.784-1.158-2.443.425-.656 1.633-.626 2.695.066 1.067.693 1.582 1.787 1.158 2.444-.423.656-1.63.626-2.695-.066Z" fill="#000D26"/></svg>