<svg width="24" height="24" fill="none" xmlns="http://www.w3.org/2000/svg"><path d="M15.442.718a2.58 2.58 0 0 0-2.21 3.906c.24.4.586.728.999.948L12.809 8.27a3.505 3.505 0 0 0-4.582 3.333c.002.25.03.5.085.745l-2.83 1.036a2.97 2.97 0 0 0-4.612-.52 2.97 2.97 0 1 0 5.069 2.098 2.97 2.97 0 0 0-.072-.634l2.716-1.193a3.505 3.505 0 0 0 3.15 1.972 3.505 3.505 0 0 0 2.129-.724l2.276 2.167a4.305 4.305 0 1 0 3.557-1.878c-.99 0-1.95.343-2.718.969l-2.424-1.964c.443-.601.683-1.328.684-2.074a3.505 3.505 0 0 0-1.521-2.89l1.204-2.891a2.58 2.58 0 0 0 3.102-2.526 2.58 2.58 0 0 0-2.58-2.578Z" fill="#000"/></svg>