<svg width="24" height="24" fill="none" xmlns="http://www.w3.org/2000/svg"><path d="M13 19.358v2a1 1 0 0 1-2 0v-2H9v2a1 1 0 1 1-2 0v-2c0-.057.005-.112.014-.166a3.008 3.008 0 0 1-1.848-1.848.915.915 0 0 1-.166.014H3a1 1 0 1 1 0-2h2v-2H3a1 1 0 1 1 0-2h2v-2H3a1 1 0 0 1 0-2h2c.057 0 .112.005.166.014.3-.864.984-1.548 1.848-1.848A1.007 1.007 0 0 1 7 5.358v-2a1 1 0 0 1 2 0v2h2v-2a1 1 0 0 1 2 0v2h2v-2a1 1 0 0 1 2 0v2c0 .056-.005.112-.014.166.864.3 1.548.984 1.848 1.848A.916.916 0 0 1 19 7.358h2a1 1 0 1 1 0 2h-2v2h2a1 1 0 0 1 0 2h-2v2h2a1 1 0 0 1 0 2h-2c-.057 0-.112-.005-.166-.014a3.01 3.01 0 0 1-1.848 1.848c.01.054.014.11.014.166v2a1 1 0 0 1-2 0v-2h-2Zm-3-10a1 1 0 0 0-1 1v4a1 1 0 0 0 1 1h4a1 1 0 0 0 1-1v-4a1 1 0 0 0-1-1h-4Z" fill="#000"/></svg>