<svg width="24" height="24" fill="none" xmlns="http://www.w3.org/2000/svg"><path d="M16.125 12c0-1.146-.401-2.12-1.203-2.922S13.146 7.875 12 7.875c-1.146 0-2.12.401-2.922 1.203S7.875 10.854 7.875 12c0 1.146.4 2.12 1.203 2.922.802.802 1.776 1.203 2.922 1.203 1.146 0 2.12-.401 2.922-1.203s1.203-1.776 1.203-2.922ZM1 10.625v9.625c0 .76.268 1.407.806 1.944A2.65 2.65 0 0 0 3.75 23h16.5a2.65 2.65 0 0 0 1.944-.806A2.65 2.65 0 0 0 23 20.25V3.75a2.65 2.65 0 0 0-.806-1.944A2.65 2.65 0 0 0 20.25 1H3.75a2.65 2.65 0 0 0-1.944.806A2.65 2.65 0 0 0 1 3.75v4.125h5.5a7.037 7.037 0 0 1 2.406-2.009A6.66 6.66 0 0 1 12 5.125a6.66 6.66 0 0 1 3.094.741A7.037 7.037 0 0 1 17.5 7.875H23v2.75h-4.254c.086.458.129.917.129 1.375a6.707 6.707 0 0 1-.924 3.448 6.875 6.875 0 0 1-2.503 2.503 6.707 6.707 0 0 1-3.448.924 6.707 6.707 0 0 1-3.448-.924 6.876 6.876 0 0 1-2.503-2.503A6.707 6.707 0 0 1 5.125 12c0-.458.043-.917.129-1.375H1Z" fill="#fff"/></svg>