<svg width="220" height="48" fill="none" xmlns="http://www.w3.org/2000/svg"><g clip-path="url(#a)" fill="#fff"><path d="m143.502 30.056-3.488-8.103-3.47 8.103-.243.551h7.425l-.224-.551Zm-1.151-14.08L152.907 40h-5.148l-2.174-5.027h-11.106l-.158.346-2.041 4.68h-5.008l10.659-24.163h4.281l.139.14Zm34.247 16.502-5.493-16.636h-4.009l-5.492 16.636-5.324-16.636h-5.214l8.43 24.164h4.051l5.493-15.873 5.493 15.873h4.094l8.412-24.163h-5.093l-5.348 16.635Zm19.24-2.852h8.933v-4.415h-8.933v-4.966h12.954v-4.384h-17.787v24.145h18.259v-4.403h-13.426v-5.995.018Zm19.258-13.765v24.127h4.845V15.843l-4.845.018Zm-122.84 9.72h-11.07v-9.739H76.28v24.182h4.906v-9.829h11.07v9.83h4.905V15.842h-4.905v9.744-.006Zm27.634-9.745h4.899v13.645c0 6.928-3.815 10.9-10.465 10.9-6.649 0-10.362-3.906-10.362-10.707v-13.82h4.906v13.663c0 4.04 1.986 6.201 5.529 6.201s5.493-2.107 5.493-6.056V15.836ZM36.85 37.45a.236.236 0 0 0 .26 0c2.798-1.399 14.455-7.321 19.276-12.04a9.399 9.399 0 0 0 3.21-6.406c.345-5.45-5.166-10.556-5.166-10.556a145.607 145.607 0 0 0-17.672 28.67.328.328 0 0 0 .085.308l.006.024Zm26.785-12.742s-16.618 8.933-25.217 14.735a.255.255 0 0 0-.103.278s.085.158.206.158c3.076 0 14.716 0 15.025-.037a11.248 11.248 0 0 0 3.367-.775 11.41 11.41 0 0 0 6.286-6.056 11.815 11.815 0 0 0 .43-8.327l.006.024ZM38.854 41.332a.333.333 0 0 0-.224.158.278.278 0 0 0 .066.26c1.866 1.344 7.546 5.317 10.296 6.056 0 0 5.062 1.726 9.447-5.82l-19.567-.672-.018.018Zm-4.627-5.45a.224.224 0 0 0 .279-.103c1.865-2.695 10.343-15.273 12.051-22.91 0 0 .933-3.694.036-6.22A9.084 9.084 0 0 0 40.132.593s-1.484-.381-3.077-.605c0 0-5.802 7.46-2.973 35.652a.211.211 0 0 0 .139.224l.006.018ZM27.741.006c-.848.067-3.143.606-3.143.606a9.083 9.083 0 0 0-6.407 6.056c-.951 2.955 0 6.22 0 6.22 1.726 7.666 10.222 20.293 12.057 22.94.121.139.224.084.224.084a.26.26 0 0 0 .188-.242C33.494 7.48 27.723.018 27.723.018l.018-.012Zm-1.29 39.74c.103-.158-.067-.291-.067-.291C17.804 33.653 1.15 24.739 1.15 24.739a11.573 11.573 0 0 0 10.435 15.14c.29.054 11.621 0 14.661 0a.321.321 0 0 0 .206-.121v-.012Zm-.29 1.756a.267.267 0 0 0-.261-.176l-19.555.672c2.126 3.785 5.699 6.717 9.411 5.82 2.574-.642 8.376-4.7 10.295-6.056.158-.12.103-.224.103-.242l.006-.018Zm1.81-4.021a.205.205 0 0 0 .055-.243A144.567 144.567 0 0 0 10.33 8.466s-5.56 5.287-5.166 10.586a9.326 9.326 0 0 0 3.228 6.371c4.845 4.73 16.6 10.707 19.325 12.076a.242.242 0 0 0 .26-.055"/></g><defs><clipPath id="a"><path fill="#fff" transform="translate(.574)" d="M0 0h219.361v48H0z"/></clipPath></defs></svg>