<svg width="203" height="48" fill="none" xmlns="http://www.w3.org/2000/svg"><path fill-rule="evenodd" clip-rule="evenodd" d="M192.895 9.933v5.595c-2.899-1.094-5.48-1.647-7.739-1.647-1.338 0-2.403.248-3.204.727-.802.483-1.211 1.077-1.211 1.78 0 .933.905 1.763 2.726 2.506l5.261 2.56c4.254 2.028 6.364 4.72 6.364 8.103 0 2.813-1.119 5.055-3.378 6.715-2.242 1.677-5.261 2.507-9.019 2.507-1.735 0-3.292-.074-4.675-.231-1.383-.149-2.973-.455-4.737-.892V31.8c3.234 1.094 6.178 1.647 8.83 1.647 3.163 0 4.736-.916 4.736-2.767 0-.92-.644-1.664-1.953-2.246l-5.844-2.49c-2.155-.975-3.758-2.156-4.807-3.556-1.032-1.412-1.557-3.031-1.557-4.881 0-2.59 1.091-4.675 3.246-6.261 2.173-1.573 5.055-2.362 8.64-2.362 1.164 0 2.507.103 3.993.293 1.499.202 2.941.45 4.328.756ZM27.393 9.933v5.595c-2.9-1.094-5.476-1.647-7.735-1.647-1.343 0-2.404.248-3.205.727-.801.483-1.21 1.077-1.21 1.78 0 .933.917 1.763 2.738 2.506l5.261 2.56c4.237 2.028 6.352 4.72 6.352 8.103 0 2.813-1.123 5.055-3.366 6.715-2.259 1.677-5.261 2.507-9.032 2.507-1.734 0-3.295-.074-4.679-.231-1.383-.149-2.957-.455-4.732-.892V31.8c3.246 1.094 6.19 1.647 8.825 1.647 3.163 0 4.737-.916 4.737-2.767 0-.92-.64-1.664-1.937-2.246l-5.844-2.49c-2.172-.975-3.774-2.156-4.807-3.556-1.049-1.412-1.56-3.031-1.56-4.881 0-2.59 1.081-4.675 3.25-6.261 2.155-1.573 5.042-2.362 8.626-2.362 1.177 0 2.503.103 4.006.293a53.42 53.42 0 0 1 4.312.756ZM33.422 9.408h8.57v28.846h-8.57V9.408ZM69.598 9.408v5.332H56.866v6.397H67.91v4.807H56.866v6.715h12.992v5.595H48.62V9.408H69.6ZM109.603 9.408v28.846h-7.999V19.23l-8.3 19.29h-4.94l-7.983-19.29v19.025h-5.785V9.408h10.46l7.14 17.659 7.471-17.659h9.936ZM137.199 9.408v5.332h-12.663v6.397h11.043v4.807h-11.043v6.715h12.923v5.595H116.22V9.408h20.979ZM167.267 9.408v28.846h-9.09l-10.2-18.5v18.5h-5.782V9.408h9.355l9.936 18.184V9.407h5.781Z" fill="#fff"/></svg>