<svg width="110" height="110" fill="none" xmlns="http://www.w3.org/2000/svg"><g filter="url(#a)"><path d="M20 51c0-19.33 15.67-35 35-35s35 15.67 35 35-15.67 35-35 35-35-15.67-35-35Z" fill="#fff"/><path d="M56.7 62.9v3.4a1.7 1.7 0 1 1-3.4 0v-3.4h-3.4v3.4a1.7 1.7 0 1 1-3.4 0v-3.4c0-.097.008-.19.024-.282a5.112 5.112 0 0 1-3.142-3.142 1.552 1.552 0 0 1-.282.024h-3.4a1.7 1.7 0 1 1 0-3.4h3.4v-3.4h-3.4a1.7 1.7 0 1 1 0-3.4h3.4v-3.4h-3.4a1.7 1.7 0 1 1 0-3.4h3.4c.097 0 .19.008.282.024a5.107 5.107 0 0 1 3.142-3.142 1.71 1.71 0 0 1-.024-.282v-3.4a1.7 1.7 0 1 1 3.4 0v3.4h3.4v-3.4a1.7 1.7 0 1 1 3.4 0v3.4h3.4v-3.4a1.7 1.7 0 1 1 3.4 0v3.4c0 .095-.008.19-.024.282a5.107 5.107 0 0 1 3.142 3.142c.093-.017.187-.025.282-.024h3.4a1.7 1.7 0 1 1 0 3.4h-3.4v3.4h3.4a1.7 1.7 0 1 1 0 3.4h-3.4v3.4h3.4a1.7 1.7 0 1 1 0 3.4h-3.4c-.097 0-.19-.008-.282-.024a5.112 5.112 0 0 1-3.142 3.142c.017.092.024.187.024.282v3.4a1.7 1.7 0 1 1-3.4 0v-3.4h-3.4Zm-5.1-17a1.7 1.7 0 0 0-1.7 1.7v6.8a1.7 1.7 0 0 0 1.7 1.7h6.8a1.7 1.7 0 0 0 1.7-1.7v-6.8a1.7 1.7 0 0 0-1.7-1.7h-6.8Z" fill="#000D26"/></g><defs><filter id="a" x="0" y="0" width="110" height="110" filterUnits="userSpaceOnUse" color-interpolation-filters="sRGB"><feFlood flood-opacity="0" result="BackgroundImageFix"/><feColorMatrix in="SourceAlpha" values="0 0 0 0 0 0 0 0 0 0 0 0 0 0 0 0 0 0 127 0" result="hardAlpha"/><feOffset dy="4"/><feGaussianBlur stdDeviation="10"/><feColorMatrix values="0 0 0 0 0 0 0 0 0 0.0742857 0 0 0 0 0.216667 0 0 0 0.15 0"/><feBlend in2="BackgroundImageFix" result="effect1_dropShadow_913_3396"/><feBlend in="SourceGraphic" in2="effect1_dropShadow_913_3396" result="shape"/></filter></defs></svg>