<svg width="110" height="110" fill="none" xmlns="http://www.w3.org/2000/svg"><g filter="url(#a)"><path d="M20 51c0-19.33 15.67-35 35-35s35 15.67 35 35-15.67 35-35 35-35-15.67-35-35Z" fill="#fff"/><path d="m63.005 50.073 2.966-2.965-7.083-7.084-2.965 2.966-7.819-7.802a3.784 3.784 0 0 0-5.345 0l-3.588 3.59a3.786 3.786 0 0 0 0 5.345l7.8 7.802L38 60.916V68h7.082l8.99-8.992 7.8 7.802c1.794 1.794 4.212 1.133 5.345 0l3.588-3.59a3.786 3.786 0 0 0 0-5.345l-7.8-7.802Zm-13.333-.83-7.82-7.802 3.57-3.59 2.399 2.4-2.229 2.247 2.663 2.664 2.248-2.248 2.738 2.74-3.57 3.588Zm14.882 14.903-7.8-7.801 3.589-3.59 2.738 2.74-2.247 2.248 2.662 2.663 2.248-2.248 2.399 2.4-3.589 3.588Zm6.894-22.517a1.88 1.88 0 0 0 0-2.663l-4.42-4.42c-.887-.888-2.115-.548-2.663 0l-3.456 3.457 7.083 7.083 3.456-3.456Z" fill="#000D26"/></g><defs><filter id="a" x="0" y="0" width="110" height="110" filterUnits="userSpaceOnUse" color-interpolation-filters="sRGB"><feFlood flood-opacity="0" result="BackgroundImageFix"/><feColorMatrix in="SourceAlpha" values="0 0 0 0 0 0 0 0 0 0 0 0 0 0 0 0 0 0 127 0" result="hardAlpha"/><feOffset dy="4"/><feGaussianBlur stdDeviation="10"/><feColorMatrix values="0 0 0 0 0 0 0 0 0 0.0742857 0 0 0 0 0.216667 0 0 0 0.15 0"/><feBlend in2="BackgroundImageFix" result="effect1_dropShadow_879_237"/><feBlend in="SourceGraphic" in2="effect1_dropShadow_879_237" result="shape"/></filter></defs></svg>