<svg width="24" height="24" fill="none" xmlns="http://www.w3.org/2000/svg"><path d="M19.071 3H4.93A1.929 1.929 0 0 0 3 4.929V19.07C3 20.137 3.863 21 4.929 21H19.07A1.929 1.929 0 0 0 21 19.071V4.93A1.929 1.929 0 0 0 19.071 3ZM6.777 18.429a.603.603 0 0 1-.587-.468l-.603-2.611a.603.603 0 0 1 .35-.69l2.812-1.205a.602.602 0 0 1 .704.172l1.245 1.522a9.315 9.315 0 0 0 4.451-4.45l-1.522-1.246a.603.603 0 0 1-.172-.704l1.205-2.812a.603.603 0 0 1 .69-.35l2.611.603a.602.602 0 0 1 .468.587c0 6.44-5.221 11.652-11.652 11.652Z" fill="#fff"/></svg>