<svg width="24" height="24" fill="none" xmlns="http://www.w3.org/2000/svg"><path d="M20.938 1H3.063A2.069 2.069 0 0 0 1 3.063v17.875C1 22.072 1.928 23 3.063 23h17.875A2.069 2.069 0 0 0 23 20.937V3.063A2.069 2.069 0 0 0 20.937 1ZM9.25 17.5a5.494 5.494 0 0 1-5.5-5.5c0-3.043 2.458-5.5 5.5-5.5 1.486 0 2.728.542 3.686 1.44L11.44 9.375c-.408-.39-1.122-.847-2.191-.847-1.879 0-3.412 1.555-3.412 3.472s1.535 3.472 3.412 3.472c2.178 0 2.994-1.563 3.12-2.372h-3.12v-1.886h5.194c.047.274.087.55.087.911 0 3.145-2.105 5.375-5.281 5.375h.001Zm11-5.5h-1.375v1.375H17.5V12h-1.375v-1.375H17.5V9.25h1.375v1.375h1.375V12Z" fill="#fff"/></svg>