<svg width="24" height="24" fill="none" xmlns="http://www.w3.org/2000/svg"><path d="M23 20.556V3.444A2.455 2.455 0 0 0 20.55 1H3.45C2.045 1 1 2.043 1 3.444v17.112C1 21.959 2.045 23 3.45 23h17.1A2.454 2.454 0 0 0 23 20.556Zm-4.664-6.592s1.383 1.365 1.724 1.998c.01.014.014.026.017.031.138.232.174.416.104.55-.115.224-.506.336-.639.346H17.1c-.171 0-.526-.044-.956-.341-.33-.23-.656-.61-.974-.98-.474-.55-.885-1.027-1.298-1.027a.47.47 0 0 0-.154.026c-.314.1-.713.546-.713 1.738 0 .372-.293.585-.5.585h-1.12c-.382 0-2.368-.133-4.126-1.99-2.159-2.273-4.097-6.833-4.114-6.873-.123-.295.13-.455.405-.455h2.47c.33 0 .437.2.513.38.085.204.408 1.028.936 1.954.859 1.507 1.388 2.12 1.81 2.12a.463.463 0 0 0 .225-.059c.551-.304.448-2.27.424-2.675 0-.077-.001-.88-.282-1.264-.203-.279-.547-.385-.755-.426a.902.902 0 0 1 .326-.276c.377-.188 1.058-.215 1.735-.215h.377c.734.01.925.058 1.19.125.537.128.547.476.5 1.662-.014.337-.028.72-.028 1.168 0 .097-.004.203-.004.313-.017.607-.037 1.292.391 1.573.056.035.12.054.185.054.149 0 .595 0 1.804-2.074a15.28 15.28 0 0 0 .969-2.077.645.645 0 0 1 .18-.223.424.424 0 0 1 .204-.048h2.902c.318 0 .533.048.574.169.07.194-.014.787-1.34 2.579l-.59.782c-1.203 1.574-1.203 1.655.07 2.85Z" fill="#009FAC"/></svg>
